<?xml version="1.0" encoding="UTF-8"?>
<svg xmlns="http://www.w3.org/2000/svg" xmlns:xlink="http://www.w3.org/1999/xlink" width="30pt" height="30.000001pt" viewBox="0 0 30 30.000001" version="1.2">
<defs>
<clipPath id="clip1">
  <path d="M 2.445312 1.960938 L 27 1.960938 L 27 27 L 2.445312 27 Z M 2.445312 1.960938 "/>
</clipPath>
</defs>
<g id="surface1">
<g clip-path="url(#clip1)" clip-rule="nonzero">
<path style=" stroke:none;fill-rule:nonzero;fill:rgb(22.749329%,35.289001%,59.609985%);fill-opacity:1;" d="M 2.445312 14.203125 C 2.445312 7.441406 7.929688 1.960938 14.695312 1.960938 C 21.460938 1.960938 26.945312 7.441406 26.945312 14.203125 C 26.945312 20.964844 21.457031 26.445312 14.695312 26.445312 C 7.929688 26.445312 2.445312 20.964844 2.445312 14.203125 "/>
</g>
<path style=" stroke:none;fill-rule:nonzero;fill:rgb(20.388794%,32.548523%,52.938843%);fill-opacity:1;" d="M 23.359375 5.566406 C 28.144531 10.347656 28.144531 18.101562 23.359375 22.878906 C 18.574219 27.660156 10.820312 27.660156 6.035156 22.878906 Z M 23.359375 5.566406 "/>
<path style=" stroke:none;fill-rule:nonzero;fill:rgb(18.03894%,30.198669%,44.709778%);fill-opacity:1;" d="M 26.867188 15.582031 L 18.003906 6.726562 L 13.402344 11.324219 L 13.675781 11.59375 L 11.058594 14.210938 L 13.199219 16.355469 L 12.917969 16.636719 L 15.238281 18.960938 L 12.5625 21.632812 L 17.136719 26.199219 C 22.292969 25.164062 26.273438 20.886719 26.867188 15.582031 "/>
<path style=" stroke:none;fill-rule:nonzero;fill:rgb(100%,100%,100%);fill-opacity:1;" d="M 12.554688 9.65625 L 12.554688 11.707031 L 11.046875 11.707031 L 11.046875 14.21875 L 12.554688 14.21875 L 12.554688 21.679688 L 15.644531 21.679688 L 15.644531 14.21875 L 17.71875 14.21875 C 17.71875 14.21875 17.910156 13.011719 18.003906 11.699219 C 17.734375 11.699219 15.65625 11.699219 15.65625 11.699219 C 15.65625 11.699219 15.65625 10.238281 15.65625 9.980469 C 15.65625 9.722656 15.992188 9.378906 16.328125 9.378906 L 18.011719 9.378906 C 18.011719 9.035156 18.011719 7.855469 18.011719 6.765625 C 17.140625 6.765625 16.152344 6.765625 15.71875 6.765625 C 12.480469 6.765625 12.554688 9.277344 12.554688 9.65625 "/>
</g>
</svg>
