<?xml version="1.0" encoding="UTF-8"?>
<svg xmlns="http://www.w3.org/2000/svg" xmlns:xlink="http://www.w3.org/1999/xlink" width="30pt" height="30.000001pt" viewBox="0 0 30 30.000001" version="1.2">
<defs>
<clipPath id="clip1">
  <path d="M 2.296875 1.816406 L 27 1.816406 L 27 27 L 2.296875 27 Z M 2.296875 1.816406 "/>
</clipPath>
</defs>
<g id="surface1">
<g clip-path="url(#clip1)" clip-rule="nonzero">
<path style=" stroke:none;fill-rule:nonzero;fill:rgb(32.159424%,49.798584%,63.529968%);fill-opacity:1;" d="M 2.296875 13.925781 C 2.296875 7.238281 7.722656 1.816406 14.410156 1.816406 C 21.097656 1.816406 26.519531 7.238281 26.519531 13.925781 C 26.519531 20.613281 21.097656 26.035156 14.410156 26.035156 C 7.722656 26.035156 2.296875 20.613281 2.296875 13.925781 Z M 2.296875 13.925781 "/>
</g>
<path style=" stroke:none;fill-rule:nonzero;fill:rgb(27.449036%,45.878601%,57.649231%);fill-opacity:1;" d="M 22.972656 5.363281 C 27.703125 10.09375 27.703125 17.761719 22.972656 22.488281 C 18.242188 27.21875 10.574219 27.21875 5.847656 22.488281 Z M 22.972656 5.363281 "/>
<path style=" stroke:none;fill-rule:nonzero;fill:rgb(25.489807%,41.958618%,50.979614%);fill-opacity:1;" d="M 26.464844 15.046875 L 19.8125 8.394531 L 19.367188 8.835938 L 18.503906 7.96875 L 17.703125 8.769531 L 16.976562 8.042969 L 14.121094 10.898438 L 11.082031 7.859375 L 10.78125 8.15625 L 10.996094 8.371094 L 10.867188 8.503906 L 10.246094 7.882812 L 9.9375 8.191406 L 10.226562 8.476562 L 9.949219 8.757812 L 9.410156 8.21875 L 8.765625 8.863281 L 9.351562 9.449219 L 8.765625 10.035156 L 8.972656 10.238281 L 8.765625 10.445312 L 9.253906 10.933594 L 8.257812 11.917969 L 10.679688 14.339844 L 10.171875 14.847656 L 11.769531 16.445312 L 8.808594 19.402344 L 15.398438 25.992188 C 21.253906 25.519531 25.929688 20.882812 26.464844 15.046875 "/>
<path style=" stroke:none;fill-rule:nonzero;fill:rgb(100%,100%,100%);fill-opacity:1;" d="M 20.628906 12.289062 C 19.453125 12.289062 18.277344 12.289062 17.097656 12.289062 C 18.476562 14.558594 16.898438 17.546875 14.054688 17.269531 C 12.316406 17.097656 10.722656 15.230469 11.425781 13.105469 C 11.46875 12.96875 11.5625 12.820312 11.636719 12.679688 C 11.703125 12.542969 11.820312 12.386719 11.789062 12.289062 C 10.632812 12.289062 8.289062 12.289062 8.289062 12.289062 L 8.289062 18.113281 C 8.40625 19.25 9.304688 20.148438 10.460938 20.257812 L 18.484375 20.257812 C 19.648438 20.140625 20.511719 19.171875 20.628906 18.144531 C 20.628906 18.144531 20.628906 13.300781 20.628906 12.289062 "/>
<path style=" stroke:none;fill-rule:nonzero;fill:rgb(100%,100%,100%);fill-opacity:1;" d="M 14.140625 11.71875 C 13.667969 11.777344 13.414062 11.878906 13.175781 12.023438 C 12.632812 12.347656 12.121094 12.953125 12.027344 13.769531 C 11.839844 15.414062 13.046875 16.546875 14.4375 16.546875 C 15.546875 16.546875 16.894531 15.757812 16.882812 14.101562 C 16.875 12.597656 15.671875 11.535156 14.140625 11.71875 M 16.226562 14.585938 C 16.023438 15.417969 15.097656 16.050781 14.144531 15.914062 C 13.234375 15.785156 12.25 14.648438 12.789062 13.378906 C 12.988281 12.910156 13.433594 12.386719 14.355469 12.324219 C 15.488281 12.242188 16.546875 13.257812 16.226562 14.585938 "/>
<path style=" stroke:none;fill-rule:nonzero;fill:rgb(100%,100%,100%);fill-opacity:1;" d="M 19.933594 8.550781 C 19.601562 8.21875 19.054688 7.910156 18.457031 7.859375 L 11.578125 7.859375 L 11.578125 10.996094 L 11.066406 10.996094 L 11.066406 7.859375 L 10.75 7.859375 L 10.75 10.996094 L 10.234375 10.996094 L 10.234375 7.886719 C 10.125 7.90625 10.011719 7.941406 9.902344 7.976562 L 9.902344 10.996094 L 9.390625 10.996094 L 9.390625 8.21875 C 9.230469 8.320312 9.082031 8.433594 8.964844 8.550781 C 8.28125 9.234375 8.230469 10.40625 8.273438 11.898438 L 12.105469 11.898438 C 12.261719 11.867188 12.445312 11.671875 12.589844 11.566406 C 13.105469 11.1875 13.769531 10.980469 14.445312 10.972656 L 14.464844 10.972656 C 15.136719 10.976562 15.800781 11.1875 16.316406 11.566406 C 16.460938 11.671875 16.644531 11.867188 16.800781 11.898438 L 20.632812 11.898438 C 20.648438 10.390625 20.617188 9.230469 19.933594 8.550781 M 19.40625 10.585938 C 19.40625 10.761719 19.265625 10.902344 19.089844 10.902344 L 17.761719 10.902344 C 17.585938 10.902344 17.445312 10.761719 17.445312 10.585938 L 17.445312 9.257812 C 17.445312 9.082031 17.585938 8.941406 17.761719 8.941406 L 19.089844 8.941406 C 19.265625 8.941406 19.40625 9.082031 19.40625 9.257812 Z M 19.40625 10.585938 "/>
</g>
</svg>
