<?xml version="1.0" encoding="UTF-8"?>
<svg xmlns="http://www.w3.org/2000/svg" xmlns:xlink="http://www.w3.org/1999/xlink" width="30pt" height="30.000001pt" viewBox="0 0 30 30.000001" version="1.2">
<defs>
<clipPath id="clip1">
  <path d="M 2.480469 1.996094 L 27.882812 1.996094 L 27.882812 27 L 2.480469 27 Z M 2.480469 1.996094 "/>
</clipPath>
<clipPath id="clip2">
  <path d="M 6 5 L 27.882812 5 L 27.882812 27 L 6 27 Z M 6 5 "/>
</clipPath>
</defs>
<g id="surface1">
<g clip-path="url(#clip1)" clip-rule="nonzero">
<path style=" stroke:none;fill-rule:nonzero;fill:rgb(7.449341%,70.199585%,79.219055%);fill-opacity:1;" d="M 2.480469 14.28125 C 2.480469 7.496094 7.980469 1.996094 14.765625 1.996094 C 21.550781 1.996094 27.054688 7.496094 27.054688 14.28125 C 27.054688 21.066406 21.550781 26.570312 14.765625 26.570312 C 7.980469 26.570312 2.480469 21.066406 2.480469 14.28125 Z M 2.480469 14.28125 "/>
</g>
<g clip-path="url(#clip2)" clip-rule="nonzero">
<path style=" stroke:none;fill-rule:nonzero;fill:rgb(6.269836%,67.059326%,71.369934%);fill-opacity:1;" d="M 23.453125 5.597656 C 28.25 10.394531 28.25 18.171875 23.453125 22.96875 C 18.652344 27.765625 10.875 27.765625 6.082031 22.96875 Z M 23.453125 5.597656 "/>
</g>
<path style=" stroke:none;fill-rule:nonzero;fill:rgb(5.488586%,63.529968%,64.309692%);fill-opacity:1;" d="M 26.9375 15.921875 L 23.621094 12.605469 L 23.347656 12.875 L 19.164062 8.691406 L 18.945312 8.910156 L 18.445312 8.410156 L 17.832031 9.023438 L 17.335938 8.527344 L 16.539062 9.324219 L 17.515625 10.300781 L 13.769531 14.042969 L 10.121094 10.394531 L 9.324219 11.191406 L 10.375 12.242188 L 9.628906 12.980469 L 10.839844 14.1875 L 10.304688 14.71875 L 11.773438 16.1875 L 11.53125 16.433594 L 12.882812 17.785156 L 11.300781 19.367188 L 10.117188 18.183594 L 8.972656 19.332031 L 7.554688 17.917969 L 7.269531 18.203125 L 15.609375 26.535156 C 21.453125 26.136719 26.175781 21.65625 26.9375 15.921875 "/>
<path style=" stroke:none;fill-rule:nonzero;fill:rgb(100%,100%,100%);fill-opacity:1;" d="M 21.683594 13.753906 C 22.664062 13.671875 23.332031 13.226562 23.585938 12.617188 C 23.230469 12.835938 22.128906 13.074219 21.527344 12.847656 C 21.496094 12.703125 21.460938 12.570312 21.433594 12.445312 C 20.972656 10.746094 19.386719 9.378906 17.726562 9.542969 C 17.863281 9.488281 18 9.4375 18.132812 9.394531 C 18.316406 9.332031 19.386719 9.152344 19.21875 8.777344 C 19.074219 8.445312 17.765625 9.027344 17.519531 9.101562 C 17.847656 8.980469 18.382812 8.769531 18.441406 8.394531 C 17.941406 8.464844 17.449219 8.695312 17.074219 9.042969 C 17.210938 8.894531 17.3125 8.714844 17.335938 8.523438 C 16.003906 9.375 15.226562 11.082031 14.601562 12.746094 C 14.109375 12.265625 13.671875 11.890625 13.28125 11.683594 C 12.179688 11.09375 10.863281 10.472656 8.792969 9.707031 C 8.730469 10.390625 9.128906 11.300781 10.289062 11.90625 C 10.035156 11.871094 9.582031 11.945312 9.214844 12.035156 C 9.363281 12.816406 9.855469 13.464844 11.171875 13.777344 C 10.566406 13.816406 10.253906 13.957031 9.972656 14.253906 C 10.246094 14.796875 10.917969 15.441406 12.121094 15.308594 C 10.78125 15.886719 11.578125 16.957031 12.667969 16.796875 C 10.804688 18.71875 7.867188 18.582031 6.183594 16.972656 C 10.585938 22.96875 20.15625 20.515625 21.582031 14.742188 C 22.648438 14.753906 23.277344 14.371094 23.664062 13.957031 C 23.050781 14.058594 22.160156 13.949219 21.683594 13.753906 "/>
</g>
</svg>
